<svg width="93" height="43" viewBox="0 0 93 43" fill="none" xmlns="http://www.w3.org/2000/svg">
<path d="M35.4375 22.6562C35.4375 19.9306 34.6293 17.2662 33.115 14.9999C31.6008 12.7337 29.4486 10.9673 26.9305 9.92418C24.4124 8.88107 21.6415 8.60807 18.9682 9.1397C16.295 9.67132 13.8394 10.9837 11.912 12.9109C9.98457 14.8381 8.67192 17.2935 8.13999 19.9667C7.60807 22.6399 7.88077 25.4108 8.92361 27.929C9.96644 30.4472 11.7326 32.5996 13.9987 34.1141C16.2648 35.6286 18.9291 36.4371 21.6547 36.4374L21.6563 36.4375L21.6578 36.4374C25.3113 36.4328 28.8138 34.9794 31.397 32.3959C33.9803 29.8123 35.4334 26.3097 35.4375 22.6562ZM22.2075 35.3222V25.4124H26.0663C26.2125 25.4124 26.3527 25.3543 26.456 25.251C26.5594 25.1476 26.6175 25.0074 26.6175 24.8612C26.6175 24.715 26.5594 24.5748 26.456 24.4714C26.3527 24.368 26.2125 24.3099 26.0663 24.3099H22.2075V20.4512C22.2083 19.7204 22.499 19.0198 23.0157 18.5031C23.5324 17.9864 24.233 17.6958 24.9638 17.695H27.1688C27.315 17.695 27.4552 17.6369 27.5585 17.5335C27.6619 17.4301 27.72 17.2899 27.72 17.1437C27.72 16.9975 27.6619 16.8573 27.5585 16.7539C27.4552 16.6505 27.315 16.5925 27.1688 16.5925H24.9638C23.9407 16.5936 22.9599 17.0005 22.2365 17.7239C21.513 18.4473 21.1061 19.4281 21.105 20.4512V24.3099H17.2463C17.1001 24.3099 16.9598 24.368 16.8565 24.4714C16.7531 24.5748 16.695 24.715 16.695 24.8612C16.695 25.0074 16.7531 25.1476 16.8565 25.251C16.9598 25.3543 17.1001 25.4124 17.2463 25.4124H21.105V35.3221C17.7933 35.1779 14.6697 33.7425 12.4034 31.3234C10.1371 28.9042 8.90842 25.6937 8.9805 22.3797C9.05258 19.0656 10.4197 15.9116 12.789 13.5932C15.1583 11.2749 18.3414 9.97667 21.6563 9.97667C24.9711 9.97667 28.1542 11.2749 30.5235 13.5932C32.8928 15.9116 34.2599 19.0656 34.332 22.3797C34.4041 25.6937 33.1754 28.9042 30.9091 31.3234C28.6428 33.7425 25.5192 35.1779 22.2075 35.3221V35.3222Z" fill="white"/>
<path d="M75.0118 8.875H62.3007C58.1992 8.875 54.875 12.1998 54.875 16.3007V29.0118C54.875 33.1133 58.1998 36.4375 62.3013 36.4375H75.0112C79.1127 36.4375 82.4375 33.1127 82.4375 29.0112V16.3007C82.4375 12.1992 79.1127 8.875 75.0112 8.875H75.0118Z" stroke="white" stroke-miterlimit="10"/>
<path d="M68 28.5625C71.6244 28.5625 74.5625 25.6244 74.5625 22C74.5625 18.3756 71.6244 15.4375 68 15.4375C64.3756 15.4375 61.4375 18.3756 61.4375 22C61.4375 25.6244 64.3756 28.5625 68 28.5625Z" stroke="white" stroke-miterlimit="10"/>
<path d="M78 14.125C78 14.5737 77.6362 14.9375 77.1875 14.9375C76.7388 14.9375 76.375 14.5737 76.375 14.125C76.375 13.6763 76.7388 13.3125 77.1875 13.3125C77.6362 13.3125 78 13.6763 78 14.125Z" fill="white" stroke="white"/>
<path d="M40.9688 5.90909L41.0156 3.91903L39.3153 4.95881L39 4.40483L40.7557 3.45455L39 2.50426L39.3153 1.95028L41.0156 2.99006L40.9688 1H41.608L41.5611 2.99006L43.2614 1.95028L43.5767 2.50426L41.821 3.45455L43.5767 4.40483L43.2614 4.95881L41.5611 3.91903L41.608 5.90909H40.9688Z" fill="white"/>
<path d="M88.9688 5.90909L89.0156 3.91903L87.3153 4.95881L87 4.40483L88.7557 3.45455L87 2.50426L87.3153 1.95028L89.0156 2.99006L88.9688 1H89.608L89.5611 2.99006L91.2614 1.95028L91.5767 2.50426L89.821 3.45455L91.5767 4.40483L91.2614 4.95881L89.5611 3.91903L89.608 5.90909H88.9688Z" fill="white"/>
</svg>
